<svg fill="none" viewBox="0 0 24 24" xmlns="http://www.w3.org/2000/svg"><path d="M12.552 8a1 1 0 1 0 0 2h4a1 1 0 1 0 0-2h-4ZM12.552 17a1 1 0 1 0 0 2h4a1 1 0 1 0 0-2h-4Z" fill="#ffffff" fill-opacity=".5" class="fill-000000"></path><path d="M12.552 5a1 1 0 1 0 0 2h8a1 1 0 1 0 0-2h-8ZM12.552 14a1 1 0 1 0 0 2h8a1 1 0 1 0 0-2h-8Z" fill="#ffffff" fill-opacity=".8" class="fill-000000"></path><path d="M3.448 4.002a1 1 0 0 0-1 1v5a1 1 0 0 0 1 1h5a1 1 0 0 0 1-1v-5a1 1 0 0 0-1-1h-5ZM3.448 12.998a1 1 0 0 0-1 1v5a1 1 0 0 0 1 1h5a1 1 0 0 0 1-1v-5a1 1 0 0 0-1-1h-5Z" fill="#ffffff" class="fill-000000"></path></svg>